<svg id="Capa_1" enable-background="new 0 0 512 512" height="512" viewBox="0 0 512 512" width="512" xmlns="http://www.w3.org/2000/svg"><g><g><path d="m66.681 122.972h313.532v41.325h-313.532z" fill="#a4fcc4"/><g><path d="m453.362 364.137v-43.768c-25.379 0-29.288-12.241-29.288-37.621h-179.555c0 25.379-3.909 37.621-29.288 37.621v43.768c25.379 0 29.288 12.241 29.288 37.62h179.555c0-25.379 3.909-37.62 29.288-37.62z" fill="#a4fcc4"/></g></g><g><path d="m502 229.136h-55.106v-119.755c0-20.92-17.02-37.94-37.94-37.94h-254.332l-14.559-12.418c-1.81-1.544-4.11-2.392-6.489-2.392h-95.634c-20.919 0-37.94 17.019-37.94 37.94v282.181c0 20.92 17.021 37.94 37.94 37.94h118.652v30.677c0 5.522 4.477 10 10 10h335.408c5.522 0 10-4.478 10-10v-206.233c0-5.523-4.478-10-10-10zm-482-134.565c0-9.893 8.048-17.94 17.94-17.94h91.948l14.559 12.418c1.81 1.544 4.11 2.392 6.489 2.392h258.017c9.893 0 17.94 8.048 17.94 17.94v44.917h-406.893zm17.94 300.121c-9.892 0-17.94-8.048-17.94-17.94v-202.454h406.894v54.838h-260.301c-5.523 0-10 4.478-10 10v155.557h-118.653zm454.06 40.677h-315.407v-186.233h315.407z" fill="#020288"/></g></g></svg>