<svg id="Capa_1" enable-background="new 0 0 512 512" height="512" viewBox="0 0 512 512" width="512" xmlns="http://www.w3.org/2000/svg"><g><g><g><g><path d="m143.751 294.298h-45.34c-5.523 0-10-4.477-10-10v-74.553c0-5.523 4.477-10 10-10h45.34c5.523 0 10 4.477 10 10v74.553c0 5.523-4.477 10-10 10zm-35.34-20h25.34v-54.553h-25.34z" fill="#020288"/></g><g><path d="m413.589 294.298h-45.34c-5.523 0-10-4.477-10-10v-141.895c0-5.523 4.477-10 10-10h45.34c5.523 0 10 4.477 10 10v141.895c0 5.523-4.477 10-10 10zm-35.34-20h25.34v-121.895h-25.34z" fill="#020288"/></g><g><path d="m233.697 294.298h-45.34c-5.523 0-10-4.477-10-10v-109.787c0-5.523 4.477-10 10-10h45.34c5.523 0 10 4.477 10 10v109.787c0 5.523-4.477 10-10 10zm-35.34-20h25.34v-89.787h-25.34z" fill="#020288"/></g><g><path d="m323.643 294.298h-45.34c-5.523 0-10-4.477-10-10v-58.545c0-5.523 4.477-10 10-10h45.34c5.523 0 10 4.477 10 10v58.545c0 5.523-4.477 10-10 10zm-35.34-20h25.34v-38.545h-25.34z" fill="#020288"/></g></g><g><path d="m30.133 274.496h451.734v61.014h-451.734z" fill="#ffbdbc"/></g></g><g fill="#020288"><path d="m502 372.608h-10.134v-296.964c0-14.651-11.92-26.571-26.571-26.571h-418.59c-14.651 0-26.571 11.92-26.571 26.571v296.965h-10.134c-5.523 0-10 4.477-10 10v42.544c0 20.83 16.946 37.775 37.775 37.775h436.449c20.83 0 37.775-16.946 37.775-37.775v-42.544c.001-5.524-4.476-10.001-9.999-10.001zm-461.866-296.964c0-3.624 2.948-6.571 6.571-6.571h418.59c3.624 0 6.571 2.948 6.571 6.571v296.965h-431.732zm451.866 349.508c0 9.801-7.974 17.775-17.775 17.775h-436.45c-9.801 0-17.775-7.974-17.775-17.775v-32.544h472z"/><path d="m285.617 407.768h-59.234c-5.523 0-10 4.477-10 10s4.477 10 10 10h59.234c5.523 0 10-4.477 10-10s-4.477-10-10-10z"/></g></g></svg>