<svg id="Capa_1" enable-background="new 0 0 512 512" height="512" viewBox="0 0 512 512" width="512" xmlns="http://www.w3.org/2000/svg"><g><g><path d="m357.726 360.205c-17.614 11.253-37.207 19.67-58.139 24.608l-43.587 67.834-43.587-67.834c-20.932-4.938-40.525-13.355-58.139-24.608h-48.913l-79.075 151.795h380.353l79.075-151.795z" fill="#fff59b"/></g><g fill="#020288"><path d="m256 0c-110.007 0-199.505 89.688-199.505 199.931 0 45.316 15.549 89.704 43.782 124.986 26.95 33.68 64.422 57.944 105.874 68.648l31.538 49.082h-17.501c-5.523 0-10 4.478-10 10s4.477 10 10 10h71.626c5.523 0 10-4.478 10-10s-4.477-10-10-10h-17.501l31.538-49.082c41.451-10.704 78.923-34.969 105.874-68.648 28.233-35.282 43.782-79.67 43.782-124.986-.002-110.243-89.5-199.931-199.507-199.931zm41.291 375.08c-2.522.595-4.715 2.146-6.117 4.326l-35.174 54.742-35.174-54.742c-1.401-2.18-3.594-3.732-6.117-4.326-81.378-19.198-138.214-91.223-138.214-175.149 0-99.214 80.526-179.931 179.505-179.931s179.505 80.717 179.505 179.931c0 83.926-56.836 155.951-138.214 175.149z"/><path d="m256 60.091c-76.948 0-139.549 62.732-139.549 139.84s62.601 139.84 139.549 139.84 139.549-62.731 139.549-139.84-62.601-139.84-139.549-139.84zm0 259.68c-65.92 0-119.549-53.76-119.549-119.84s53.629-119.84 119.549-119.84 119.549 53.76 119.549 119.84-53.629 119.84-119.549 119.84z"/></g></g></svg>