<svg id="Capa_1" enable-background="new 0 0 512 512" height="512" viewBox="0 0 512 512" width="512" xmlns="http://www.w3.org/2000/svg"><g><g><path d="m156.769 413.12v-123.395c-19.274-4.536-39.102-6.861-59.106-6.861h-31.924v199.515h117.303v-39.664c0-15.279-11.481-27.871-26.273-29.595z" fill="#fff59b"/><g><path d="m358.41 166.51v98.678c27.207 0 49.262-22.09 49.262-49.339s-22.055-49.339-49.262-49.339z" fill="#fff59b"/></g></g><g fill="#020288"><path d="m458.353 99.137c-4.187-3.601-10.501-3.126-14.103 1.062-3.601 4.187-3.126 10.501 1.061 14.102 29.671 25.517 46.689 62.529 46.689 101.548 0 40.968-18.433 79.153-50.572 104.763-4.318 3.442-5.03 9.733-1.588 14.053 1.975 2.478 4.887 3.769 7.827 3.769 2.184 0 4.384-.713 6.226-2.18 36.927-29.427 58.107-73.313 58.107-120.405 0-44.852-19.554-87.392-53.647-116.712z"/><path d="m424.733 132.549c-4.314-3.448-10.605-2.751-14.056 1.563-3.45 4.313-2.751 10.605 1.562 14.056 20.716 16.571 32.597 41.24 32.597 67.682 0 27.825-13.54 54.154-36.22 70.429-4.487 3.22-5.515 9.468-2.295 13.955 1.954 2.722 5.021 4.171 8.134 4.171 2.018 0 4.057-.61 5.821-1.876 27.901-20.022 44.56-52.426 44.56-86.678 0-32.553-14.617-62.915-40.103-83.302z"/><path d="m358.41 29.621h-52.621c-5.522 0-10 4.477-10 10v17.176l-60.418 40.307c-40.921 27.3-88.54 41.73-137.708 41.73h-59.955c-20.792.001-37.708 16.936-37.708 37.751v78.527c0 20.816 16.916 37.751 37.708 37.751h59.955c49.168 0 96.786 14.43 137.708 41.73l60.418 40.306v17.176c0 5.523 4.478 10 10 10h52.621c5.522 0 10-4.477 10-10v-352.454c0-5.523-4.477-10-10-10zm-302.671 243.243h-18.031c-9.765 0-17.708-7.963-17.708-17.751v-78.527c0-9.788 7.943-17.751 17.708-17.751h18.031zm240.05-67.015h-110.025c-5.523 0-10 4.477-10 10s4.477 10 10 10h110.025v125.009l-49.318-32.901c-44.219-29.5-95.676-45.093-148.808-45.093h-21.924v-114.029h21.924c53.132 0 104.589-15.593 148.808-45.093l49.318-32.902zm52.621 176.228h-32.621v-332.456h32.621z"/></g></g></svg>