<svg id="Capa_1" enable-background="new 0 0 512 512" height="512" viewBox="0 0 512 512" width="512" xmlns="http://www.w3.org/2000/svg"><g><g><path d="m357.601 135.596h-203.202v182.808h76.606l24.995 24.995 24.995-24.995h76.606z" fill="#a4fcc4"/></g><g fill="#020288"><path d="m408.334 49.082c0-27.063-22.018-49.082-49.082-49.082h-206.504c-27.064 0-49.082 22.019-49.082 49.082v413.836c0 27.063 22.018 49.082 49.082 49.082h206.504c27.064 0 49.082-22.019 49.082-49.082v-382.594c0-.008 0-.016 0-.024s0-.016 0-.024zm-284.668 372.642v-331.446l264.668.044v331.401h-264.668zm0-372.642c0-16.036 13.046-29.082 29.082-29.082h206.504c16.036 0 29.082 13.046 29.082 29.082v21.194h-264.668zm235.586 442.918h-206.504c-16.036 0-29.082-13.046-29.082-29.082v-21.193l264.668.044v21.148c0 16.037-13.046 29.083-29.082 29.083z"/><path d="m276.34 35.139h-40.68c-5.523 0-10 4.478-10 10s4.477 10 10 10h40.681c5.523 0 10-4.478 10-10-.001-5.523-4.478-10-10.001-10z"/><path d="m266.17 455.379h-20.34c-5.523 0-10 4.478-10 10s4.477 10 10 10h20.341c5.523 0 10-4.478 10-10s-4.478-10-10.001-10z"/><path d="m235.421 259.434c-3.476-4.292-9.773-4.953-14.064-1.478-4.292 3.476-4.954 9.772-1.479 14.064 6.387 7.887 15.685 12.227 24.837 14.183v.225c0 5.522 4.477 10 10 10 5.352 0 9.721-4.204 9.987-9.489 16.187-2.468 27.592-12.912 29.404-27.245 2.062-16.314-8.625-31.974-25.987-38.078-1.182-.416-2.317-.818-3.404-1.206v-25.58c2.371.96 4.04 2.273 4.934 3.54 3.183 4.511 9.422 5.59 13.936 2.407 4.513-3.184 5.591-9.423 2.407-13.936-4.172-5.913-11.605-10.888-21.276-12.705v-.809c0-5.522-4.477-10-10-10s-10 4.478-10 10v1.524c-1.06.253-2.132.541-3.216.866-11.528 3.455-20.224 14.594-21.147 27.088-.913 12.362 5.681 23.092 17.638 28.701 1.516.711 3.818 1.67 6.725 2.807v31.194c-3.714-1.309-7.046-3.297-9.295-6.073zm38.843-2.248c-.575 4.552-3.981 7.829-9.549 9.358v-24.671c7.38 3.835 10.176 10.35 9.549 15.313zm-33.966-52.909c.238-3.224 2-6.319 4.417-8.111v16.27c-3.184-2.011-4.668-4.748-4.417-8.159z"/><path d="m291.733 372.621h-71.467c-5.523 0-10 4.478-10 10s4.477 10 10 10h71.467c5.523 0 10-4.478 10-10s-4.477-10-10-10z"/></g></g></svg>